<?xml version="1.0" standalone="no"?><!DOCTYPE svg PUBLIC "-//W3C//DTD SVG 1.1//EN" "http://www.w3.org/Graphics/SVG/1.1/DTD/svg11.dtd"><svg t="1772590162669" class="icon" viewBox="0 0 1024 1024" version="1.1" xmlns="http://www.w3.org/2000/svg" p-id="14624" width="256" height="256" xmlns:xlink="http://www.w3.org/1999/xlink"><path d="M489.307042 95.562164C452.709917 104.763727 432.0064 140.31522 442.671848 175.866672 446.017871 186.950415 456.683319 202.007518 465.257503 207.863058 470.69479 211.418207 471.113043 212.46384 471.113043 227.730069L471.113043 243.832805 326.188425 244.460184 181.263807 245.087563 165.370198 253.034368C137.13813 266.836712 120.198889 290.467999 115.388981 322.464343 114.343349 329.365516 113.506843 365.335262 113.506843 402.350641L113.506843 469.898478 97.404149 469.898478C84.856522 469.898478 79.419193 470.944111 74.4002 474.081007 61.016108 482.027811 61.016108 482.864401 61.643488 565.887427L62.270867 640.9639 67.499028 646.610314C75.864085 655.602792 82.765257 658.112268 98.658866 658.112268L113.297716 658.112268 113.925054 773.550059C114.552475 889.196976 114.552475 889.196976 119.362383 899.653298 131.909969 927.04886 157.005141 937.086929 182.100313 924.539343 188.374106 921.402447 205.10422 908.018355 221.625209 892.542999 264.077874 853.436356 291.264311 829.595943 300.465874 823.531276L308.830931 818.093989 572.330236 817.46661C865.316369 816.83923 846.913242 817.884862 869.91715 802.618633 889.365908 789.443668 902.959126 769.36753 907.978161 746.363622 909.232919 740.298956 910.278552 717.922428 910.278552 696.800658L910.278552 658.112268 925.126528 658.112268C942.902275 658.112268 952.312965 654.138866 958.377631 644.51905 962.351033 638.036172 962.56016 634.271938 962.56016 563.58712 962.56016 489.765489 962.56016 489.347278 957.750252 482.236938 951.058206 472.407996 944.993539 469.898478 926.590413 469.898478L910.278552 469.898478 910.278552 396.076848C910.278552 316.19055 909.232919 307.198114 898.776598 289.004114 887.902023 270.600988 869.080644 255.543885 847.958875 248.433586 835.411289 244.251057 831.22876 244.041931 683.376435 244.041931L531.759708 244.041931 531.759708 212.254713 542.634241 202.634897C557.064007 189.459932 563.128673 176.284967 563.128673 157.045335 563.128673 144.706875 562.083041 140.106094 556.645754 129.440646 543.889041 103.927221 515.029594 89.288371 489.307042 95.562164ZM834.574783 310.125884C838.339059 312.217148 843.148967 317.863562 845.449357 322.464343 849.631886 330.829401 849.631886 336.057561 849.631886 530.126891 849.631886 745.94537 850.050139 737.162059 838.129932 748.036634L832.483519 753.264795 562.501294 754.310427 292.309943 755.356059 279.971483 761.629852C266.796518 768.321898 237.93707 792.162311 200.294312 827.504678L177.290405 849.253827 176.663026 588.891419C176.453899 404.651031 176.872152 327.065125 178.545163 323.091723 179.79988 320.163953 183.145945 315.354045 186.073715 312.635401 190.883623 308.243746 193.39314 307.825493 221.834335 306.779861 238.773576 306.152482 382.025182 305.734229 540.333892 305.943355 818.681174 306.152482 828.091864 306.152482 834.574783 310.125884Z" fill="#8C8C8C" p-id="14625"></path><path d="M332.043965 392.312572C315.31385 396.704227 300.047621 408.83356 292.100816 424.308916 290.218679 428.073192 288.127414 436.856502 287.500035 443.966801 285.617897 468.434593 297.538104 489.556363 319.496379 500.431021 329.952701 505.449972 332.880471 505.868225 347.519321 505.031719 360.276033 504.195255 365.922447 502.940455 373.450999 498.5488 407.120354 478.681747 412.139389 432.464805 383.279941 406.533169 378.470033 401.932388 371.359734 397.12248 367.595459 395.449468 358.812148 391.894319 340.199896 390.221307 332.043965 392.312572Z" fill="#8C8C8C" p-id="14626"></path><path d="M635.695545 392.521698C624.402718 395.449468 617.501546 399.422871 608.299983 408.624434 580.067914 436.438249 589.68773 485.373834 626.284856 501.267443 639.459821 506.913857 662.045476 506.495604 674.802188 500.221811 708.471544 483.910033 717.463897 438.947766 692.996188 410.924824 679.40297 395.658595 655.144304 387.71179 635.695545 392.521698Z" fill="#8C8C8C" p-id="14627"></path><path d="M555.600122 574.252568C549.117119 577.180338 545.1438 581.362867 539.497386 590.355304 526.322421 612.104453 515.029594 619.42394 495.999005 617.959909 480.314606 616.914361 469.440031 609.804062 461.284101 594.956085 451.664285 578.435097 446.017871 573.834315 433.052032 572.99781 418.622308 571.952178 409.629872 577.180338 403.774332 590.355304 398.755297 602.066384 399.800929 610.222315 408.793366 627.161556 423.850469 655.393624 453.337296 675.260635 486.797525 679.443122 503.736766 681.534386 507.291916 681.325302 522.767272 677.3519 532.387088 675.051509 544.516421 670.450769 549.953708 667.104704 573.584995 653.511403 596.588902 621.515205 596.588902 602.066384 596.588902 579.689856 575.258006 565.26009 555.600122 574.252568Z" fill="#8C8C8C" p-id="14628"></path></svg>